<svg xmlns="http://www.w3.org/2000/svg" viewBox="0 0 80 80" width="80px" height="80px"><defs><style>.a{fill:#607d8b;}</style></defs><title>code-scribe-logo</title><path class="a" d="M80,42.88V68.27A11.73,11.73,0,0,1,68.27,80H11.73A11.73,11.73,0,0,1,0,68.27H0V42.88s1.23.2,1.65.32a5.43,5.43,0,0,1,3.73,3.21c.1.23.19.47.27.71a14.74,14.74,0,0,1,.67,4.47v9.8a30.72,30.72,0,0,0,.37,5,13.67,13.67,0,0,0,1.23,4,6.56,6.56,0,0,0,2.37,2.68,10.22,10.22,0,0,0,2.13,1,23.4,23.4,0,0,0,5.75,1.05c1.91.15,3.83.14,5.75.13h.4V69.81h-.55c-1.51,0-3,0-4.53-.12a9.75,9.75,0,0,1-2.83-.58,3.61,3.61,0,0,1-2.31-2.27,10.59,10.59,0,0,1-.52-2.1,25.37,25.37,0,0,1-.22-3.65V52.7a35.32,35.32,0,0,0-.15-3.84,18.21,18.21,0,0,0-.63-3.25,7.29,7.29,0,0,0-4-4.68c-.67-.32-1.39-.55-2.09-.82L6.06,40l.43-.13c.59-.21,1.19-.38,1.75-.63a7.41,7.41,0,0,0,4.38-5.1,21.2,21.2,0,0,0,.68-5.47V19.37a31.75,31.75,0,0,1,.15-3.54A12.12,12.12,0,0,1,14,13.38a3.72,3.72,0,0,1,2.54-2.53l.51-.16a13.48,13.48,0,0,1,3.2-.45h4c.08-.48.06-5.08,0-5.39H21.65a38.83,38.83,0,0,0-6.26.46,17.85,17.85,0,0,0-3.67,1,7,7,0,0,0-4.08,4,15,15,0,0,0-.84,2.88,28.9,28.9,0,0,0-.45,5.31v10a16.62,16.62,0,0,1-.46,3.7,5.66,5.66,0,0,1-4.28,4.58c-.5.13-1,.19-1.59.32V11.82A11.74,11.74,0,0,1,11.68,0H68.27A11.73,11.73,0,0,1,80,11.73h0V37a20.5,20.5,0,0,1-2.42-.68,5,5,0,0,1-2.92-2.94,14.41,14.41,0,0,1-.58-1.93,18.5,18.5,0,0,1-.36-4V18.17a27.94,27.94,0,0,0-.4-4.93,14,14,0,0,0-1-3.45,6.6,6.6,0,0,0-3.43-3.42A16.31,16.31,0,0,0,67,5.68a25.91,25.91,0,0,0-6.24-.9c-1.48-.06-3,0-4.46-.06h-.4a52.76,52.76,0,0,0,0,5.39h.55a34,34,0,0,1,5.32.23A9,9,0,0,1,64.1,11a3.47,3.47,0,0,1,1.76,1.72,8.17,8.17,0,0,1,.63,2,22.5,22.5,0,0,1,.3,4.06v8.46A35.27,35.27,0,0,0,66.94,31a18.23,18.23,0,0,0,.62,3.25A7.26,7.26,0,0,0,71.69,39c.66.3,1.35.5,2,.75l.31.1c-.61.21-1.19.4-1.75.63a8.38,8.38,0,0,0-3,2,7.94,7.94,0,0,0-1.84,3.59,21.44,21.44,0,0,0-.61,5.29V61a24.54,24.54,0,0,1-.23,3.65,8.75,8.75,0,0,1-.7,2.48,3.33,3.33,0,0,1-1.73,1.7,9.29,9.29,0,0,1-1.25.44,16,16,0,0,1-3.81.45H55.87c-.09.53-.06,5.13,0,5.41h.25a55.79,55.79,0,0,0,7.46-.3,22.72,22.72,0,0,0,4-.85,7.24,7.24,0,0,0,4.88-4.36c.09-.24.19-.47.27-.71a19.86,19.86,0,0,0,1-6.15V53.6c0-1.27.05-2.54.14-3.81a11.48,11.48,0,0,1,.72-3.26,5.29,5.29,0,0,1,3.26-3.25C78.21,43.23,80,42.88,80,42.88ZM27,47.29a2.23,2.23,0,0,0,0,.22A26.3,26.3,0,0,0,26.53,55a15.28,15.28,0,0,0,1.39,5.35.88.88,0,0,1,0,.59c-.49,2.44-1,4.87-1.48,7.31-.41,2.13-.78,4.27-1.17,6.4a1.16,1.16,0,0,0,0,.34.29.29,0,0,0,.13.2.27.27,0,0,0,.24,0,1.21,1.21,0,0,0,.22-.3l3.83-6.68a2,2,0,0,0,.13-.23.24.24,0,0,0-.09-.33h0a1.43,1.43,0,0,1-.65-1.11A7.22,7.22,0,0,1,29,64.36c.11-1.07.27-2.14.39-3.21a1.17,1.17,0,0,1,.44-.79,42.4,42.4,0,0,0,5-4.59,21.88,21.88,0,0,0,3.62-5.16,27.88,27.88,0,0,0,2-5.51c.55-2.16,1.06-4.34,1.6-6.51.38-1.51.79-3,1.18-4.53a9.35,9.35,0,0,0-2.06,1.47c.74-.9,1.49-1.77,2.24-2.65a1.7,1.7,0,0,0,.34-.63c.38-1.24.76-2.47,1.17-3.7A167.34,167.34,0,0,1,52.6,9.64c.7-1.49,1.44-3,2.15-4.46,0-.1.15-.2.07-.36l-.28.23a102,102,0,0,0-7.86,8.08q-2.74,3.13-5.25,6.44a2.48,2.48,0,0,0-.34.69c-.17.92-.55,3.38-.62,3.72,0-.38,0-2.54-.08-3l-.28.37c-1.21,1.77-2.46,3.52-3.64,5.31a80.51,80.51,0,0,0-6.65,12.28A50.79,50.79,0,0,0,27.38,46a.74.74,0,0,0,.12.7c.5.68,1.5,2.16,1.5,2.23S27,47.27,27,47.29Z"/></svg>
